<?xml version="1.0" standalone="no"?>
<!DOCTYPE svg PUBLIC "-//W3C//DTD SVG 20010904//EN"
 "http://www.w3.org/TR/2001/REC-SVG-20010904/DTD/svg10.dtd">
<svg version="1.0" xmlns="http://www.w3.org/2000/svg"
 width="400.000000pt" height="400.000000pt" viewBox="0 0 400.000000 400.000000"
 preserveAspectRatio="xMidYMid meet">
<metadata>
Created by potrace 1.14, written by Peter Selinger 2001-2017
</metadata>
<g transform="translate(0.000000,400.000000) scale(0.100000,-0.100000)"
fill="#000000" stroke="none">
<path d="M1870 3130 c-316 -25 -613 -145 -872 -353 -283 -227 -477 -548 -561
-927 -20 -92 -21 -126 -24 -973 l-4 -877 65 0 65 0 3 852 c4 839 4 855 26 961
110 525 460 931 953 1105 173 61 274 77 484 76 156 0 207 -4 287 -22 300 -66
567 -215 770 -431 184 -195 307 -431 370 -709 21 -95 22 -113 25 -964 l4 -868
65 0 65 0 -4 888 c-3 865 -4 889 -25 982 -111 490 -420 884 -871 1110 -80 40
-272 104 -374 124 -73 15 -288 37 -332 34 -11 0 -63 -4 -115 -8z"/>
<path d="M1645 2206 c-103 -46 -118 -183 -28 -250 56 -42 138 -30 192 28 34
36 40 118 12 163 -39 61 -115 87 -176 59z"/>
<path d="M2240 2198 c-56 -29 -83 -77 -77 -137 15 -143 203 -178 270 -50 36
67 -2 164 -76 194 -50 20 -65 19 -117 -7z"/>
<path d="M1052 1690 c-204 -29 -316 -213 -268 -437 62 -296 339 -483 826 -558
145 -22 495 -31 656 -16 260 24 487 85 642 173 97 55 217 171 260 254 92 177
82 370 -25 485 -58 62 -125 90 -228 96 -97 6 -179 -6 -395 -57 -221 -53 -340
-70 -494 -70 -151 0 -275 17 -481 66 -270 63 -387 79 -493 64z m413 -149 c420
-102 658 -108 1010 -25 333 78 420 88 515 57 177 -57 189 -330 22 -515 -162
-180 -538 -288 -997 -288 -344 0 -614 50 -825 152 -89 43 -117 62 -180 127
-99 100 -132 174 -133 301 -2 122 28 175 123 220 40 19 58 20 170 16 101 -3
157 -12 295 -45z"/>
<path d="M2755 1290 c-87 -42 -285 -105 -400 -129 -367 -73 -767 -41 -1073 85
-110 46 -136 48 -140 13 -3 -23 4 -29 58 -53 169 -76 385 -128 613 -148 299
-26 639 30 936 154 106 45 129 62 118 92 -9 23 -43 19 -112 -14z"/>
</g>
</svg>
